<svg width="125" height="125" viewBox="0 0 125 125" fill="none" xmlns="http://www.w3.org/2000/svg">
<path d="M61.25 102.5L62.5 102.5C82.5203 102.5 98.75 86.2703 98.75 66.25C98.75 46.2297 82.5203 30 62.5 30L61.25 30C41.2297 30 25 46.2297 25 66.25C25 86.2703 41.2297 102.5 61.25 102.5Z" fill="#F7C546"/>
<path d="M84.3229 10.4167H40.6771C21.7188 10.4167 10.4167 21.7188 10.4167 40.6771V84.2709C10.4167 103.281 21.7188 114.583 40.6771 114.583H84.2709C103.229 114.583 114.531 103.281 114.531 84.3229V40.6771C114.583 21.7188 103.281 10.4167 84.3229 10.4167ZM82.7604 70.1563C77.3959 75.4688 69.7396 77.1354 62.9688 75L57.4479 80.4688C56.9792 80.9375 56.1459 80.9375 55.625 80.4688L50.5729 75.4167C49.8438 74.6875 48.5938 74.6875 47.8125 75.4167C47.0313 76.1458 47.0834 77.3959 47.8125 78.1771L52.8646 83.2292C53.3854 83.75 53.3854 84.5833 52.8646 85.0521L50.7292 87.1875C49.8438 88.125 48.125 88.6979 46.875 88.5417L41.1979 87.7604C39.3229 87.5 37.6042 85.7292 37.2917 83.8542L36.5104 78.1771C36.3021 76.9271 36.9271 75.2084 37.7604 74.3229L50 62.0834C47.9167 55.3125 49.5313 47.6563 54.8959 42.2917C62.5521 34.6354 75.0521 34.6354 82.7604 42.2917C90.4688 49.9479 90.4688 62.4479 82.7604 70.1563Z" fill="#5D616C"/>
<path d="M57.6667 50.6667L64.3334 61.3334" stroke="#8C89AC" stroke-width="2.66667" stroke-linecap="round"/>
<path d="M75.9631 67.3334C77.9525 63.8876 78.9999 59.9788 78.9999 56C78.9999 52.0212 77.9525 48.1125 75.9631 44.6667" stroke="#8C89AC" stroke-width="2.66667" stroke-linecap="round"/>
<path d="M70.1897 64C71.594 61.5677 72.3333 58.8085 72.3333 56C72.3333 53.1914 71.594 50.4323 70.1897 48" stroke="#8C89AC" stroke-width="2.66667" stroke-linecap="round"/>
<path d="M64.2375 61.3334C65.1737 59.7118 65.6666 57.8725 65.6666 56.0001C65.6666 54.1277 65.1737 52.2883 64.2375 50.6667" stroke="#8C89AC" stroke-width="2.66667" stroke-linecap="round"/>
<path d="M57.7623 61.3334C56.8261 59.7118 56.3333 57.8725 56.3333 56.0001C56.3333 54.1277 56.8261 52.2883 57.7623 50.6667" stroke="#8C89AC" stroke-width="2.66667" stroke-linecap="round"/>
</svg>
