<svg width="410" height="83" viewBox="0 0 410 83" fill="none" xmlns="http://www.w3.org/2000/svg">
<path d="M85.2754 16.7132C85.795 16.6003 86.3936 16.5325 87.0713 16.5099C87.749 16.4648 88.3363 16.4422 88.8333 16.4422C89.4207 16.4422 90.0419 16.4648 90.697 16.5099C91.3521 16.5325 91.9507 16.6003 92.4929 16.7132V63C91.9507 63.0904 91.3521 63.1581 90.697 63.2033C90.0419 63.2485 89.4207 63.2711 88.8333 63.2711C88.3363 63.2711 87.749 63.2485 87.0713 63.2033C86.3936 63.1581 85.795 63.0904 85.2754 63V16.7132ZM118.449 61.1363C117.952 61.8592 117.24 62.424 116.314 62.8306C115.388 63.2146 114.473 63.4066 113.569 63.4066C112.146 63.4066 111.118 63.0452 110.486 62.3223C109.876 61.5994 109.311 60.5038 108.792 59.0355L105.132 49.1411C104.183 46.5432 103.11 44.736 101.913 43.7195C100.716 42.703 99.1117 42.1947 97.1012 42.1947C96.3784 42.1947 95.3279 42.2173 93.9499 42.2624C92.572 42.3076 90.8438 42.398 88.7655 42.5335V37.7896H100.422C102.726 37.7896 104.578 38.1285 105.979 38.8062C107.38 39.4613 108.52 40.4327 109.401 41.7203C110.282 42.9853 111.062 44.544 111.74 46.3964L115.433 56.1891C115.794 57.1379 116.122 57.9173 116.416 58.5272C116.732 59.1371 117.048 59.6454 117.364 60.052C117.703 60.436 118.065 60.7975 118.449 61.1363ZM107.572 19.424C108.114 18.4527 108.667 17.7298 109.232 17.2554C109.797 16.7584 110.689 16.5099 111.909 16.5099C112.519 16.5099 113.174 16.5212 113.874 16.5438C114.597 16.5664 115.309 16.6116 116.009 16.6794L116.483 17.2893L106.216 34.6722C105.222 36.4343 103.969 37.8235 102.455 38.8401C100.964 39.8566 99.0779 40.3649 96.7963 40.3649H88.7655V36.1971C89.9176 36.1519 91.1827 36.118 92.5607 36.0954C93.9386 36.0502 95.1811 36.0276 96.288 36.0276C96.9657 36.0276 97.4627 35.8808 97.7789 35.5871C98.1178 35.2935 98.4792 34.8078 98.8632 34.1301L107.572 19.424ZM130.761 17.1538L131.202 16.7132H137.809V22.6431C137.809 23.5919 137.82 24.3712 137.843 24.9812C137.866 25.5685 137.877 26.3253 137.877 27.2514V53.6478C137.877 54.2577 137.866 54.8224 137.843 55.342C137.82 55.839 137.809 56.415 137.809 57.0701V63.0678H134.895C133.63 63.0678 132.625 62.6724 131.879 61.8818C131.134 61.0912 130.761 59.9955 130.761 58.595V17.1538ZM154.819 36.6376C154.932 37.0894 155.011 37.6089 155.057 38.1963C155.124 38.761 155.158 39.2354 155.158 39.6194C155.158 40.026 155.124 40.5117 155.057 41.0765C155.011 41.6186 154.932 42.1382 154.819 42.6352H142.079C141.559 42.6352 140.904 42.6352 140.113 42.6352C139.323 42.6126 138.498 42.6013 137.64 42.6013C136.804 42.5787 136.047 42.5561 135.369 42.5335V36.7053C136.047 36.7053 136.804 36.7053 137.64 36.7053C138.498 36.6827 139.323 36.6714 140.113 36.6714C140.904 36.6489 141.559 36.6376 142.079 36.6376H154.819ZM158.479 16.7132C158.592 17.2554 158.66 17.775 158.682 18.272C158.705 18.7463 158.716 19.1868 158.716 19.5935C158.716 20.0001 158.671 20.5084 158.581 21.1183C158.513 21.7056 158.366 22.2704 158.14 22.8125H142.079C141.559 22.8125 140.904 22.8125 140.113 22.8125C139.323 22.8125 138.498 22.8125 137.64 22.8125C136.804 22.7899 136.047 22.7673 135.369 22.7448V16.7132H158.479ZM159.8 56.9346C159.8 59.1258 159.462 60.6958 158.784 61.6446C158.129 62.5934 156.875 63.0678 155.023 63.0678H135.369V57.2396C136.454 57.1718 137.527 57.104 138.589 57.0363C139.65 56.9685 140.881 56.9346 142.282 56.9346H159.8ZM181.616 43.7873H188.833V63C188.269 63.0904 187.659 63.1581 187.004 63.2033C186.371 63.2485 185.772 63.2711 185.208 63.2711C184.688 63.2711 184.09 63.2485 183.412 63.2033C182.734 63.1581 182.136 63.0904 181.616 63V43.7873ZM194.865 16.7132C195.362 16.5777 195.87 16.4986 196.39 16.4761C196.909 16.4309 197.418 16.4083 197.915 16.4083C198.525 16.4083 199.134 16.4535 199.744 16.5438C200.354 16.6116 200.908 16.7245 201.405 16.8827L201.744 17.3909L188.257 49.5816H182.294L168.74 17.5265C169.53 17.0973 170.298 16.7697 171.044 16.5438C171.812 16.3179 172.546 16.205 173.246 16.205C174.263 16.205 175.054 16.4648 175.618 16.9843C176.206 17.4813 176.714 18.272 177.143 19.3563L182.497 32.3681C182.994 33.5653 183.491 34.932 183.988 36.4681C184.507 38.0042 184.959 39.4613 185.343 40.8393H185.682C185.953 39.9357 186.269 38.9417 186.631 37.8574C186.992 36.7505 187.365 35.7001 187.749 34.7061C188.133 33.6896 188.449 32.8537 188.698 32.1986L194.865 16.7132ZM204.547 59.3065C204.547 58.8999 204.603 58.3352 204.716 57.6123C204.829 56.8894 204.988 56.3247 205.191 55.9181C205.643 55.6696 206.264 55.4663 207.055 55.3081C207.845 55.1274 208.602 55.0371 209.325 55.0371C210.002 55.0371 210.748 55.1274 211.561 55.3081C212.397 55.4663 213.03 55.6696 213.459 55.9181C213.685 56.3247 213.854 56.8894 213.967 57.6123C214.08 58.3352 214.136 58.8999 214.136 59.3065C214.136 59.7132 214.08 60.2779 213.967 61.0008C213.854 61.7011 213.685 62.2545 213.459 62.6612C213.075 62.9322 212.453 63.1468 211.595 63.305C210.759 63.4631 210.002 63.5422 209.325 63.5422C208.602 63.5422 207.845 63.4631 207.055 63.305C206.264 63.1468 205.643 62.9322 205.191 62.6612C204.988 62.2545 204.829 61.7011 204.716 61.0008C204.603 60.2779 204.547 59.7132 204.547 59.3065Z" fill="#F7C546"/>
<path d="M235.463 61.3058H228.585V13.5958L229.025 13.1553H231.634C233.103 13.1553 234.108 13.5168 234.65 14.2397C235.192 14.9399 235.463 16.0694 235.463 17.6281V61.3058ZM256.133 45.8204C256.133 49.7736 255.444 53.0604 254.066 55.6809C252.688 58.3013 250.847 60.2666 248.543 61.5768C246.239 62.8645 243.697 63.5083 240.919 63.5083C238.75 63.5083 236.627 63.3163 234.548 62.9322C232.47 62.5482 230.482 62.006 228.585 61.3058L232.041 55.9181C233.441 56.7313 234.842 57.3412 236.243 57.7478C237.666 58.1319 239.247 58.3239 240.987 58.3239C242.523 58.3239 243.889 57.8721 245.087 56.9685C246.306 56.0423 247.255 54.653 247.933 52.8006C248.633 50.9483 248.983 48.6554 248.983 45.922C248.983 41.9914 248.385 39.1563 247.187 37.4169C246.013 35.6775 244.556 34.8078 242.816 34.8078C241.145 34.7852 239.507 35.316 237.903 36.4004C236.299 37.4847 235.023 38.8853 234.074 40.6021L233.057 34.8755C233.758 33.9945 234.65 33.1022 235.734 32.1986C236.819 31.295 238.084 30.5383 239.529 29.9284C240.998 29.2958 242.624 28.9796 244.409 28.9796C247.007 28.9796 249.164 29.7025 250.881 31.1482C252.62 32.5714 253.931 34.5593 254.812 37.1119C255.693 39.642 256.133 42.5448 256.133 45.8204ZM296.378 46.2609C296.378 49.7171 295.824 52.7781 294.717 55.4437C293.61 58.0867 291.973 60.1537 289.804 61.6446C287.635 63.1355 284.936 63.881 281.706 63.881C278.498 63.881 275.81 63.1242 273.641 61.6107C271.472 60.0972 269.835 58.0189 268.728 55.3759C267.643 52.7103 267.101 49.6719 267.101 46.2609C267.101 42.8272 267.655 39.7889 268.762 37.1458C269.868 34.5028 271.506 32.4358 273.675 30.9449C275.843 29.4314 278.52 28.6746 281.706 28.6746C284.958 28.6746 287.669 29.4314 289.838 30.9449C292.029 32.4358 293.667 34.5028 294.751 37.1458C295.836 39.7889 296.378 42.8272 296.378 46.2609ZM274.319 46.2609C274.319 48.3617 274.533 50.3496 274.962 52.2246C275.392 54.0996 276.148 55.6244 277.233 56.7991C278.317 57.9512 279.831 58.5272 281.773 58.5272C283.716 58.5272 285.218 57.9512 286.28 56.7991C287.342 55.6244 288.087 54.0996 288.516 52.2246C288.946 50.3496 289.16 48.3617 289.16 46.2609C289.16 44.16 288.946 42.1721 288.516 40.2971C288.087 38.4222 287.342 36.8973 286.28 35.7227C285.218 34.548 283.716 33.9607 281.773 33.9607C279.831 33.9607 278.317 34.548 277.233 35.7227C276.148 36.8973 275.392 38.4222 274.962 40.2971C274.533 42.1721 274.319 44.16 274.319 46.2609ZM307.359 53.9189C307.359 51.321 307.923 49.1976 309.053 47.5485C310.205 45.8768 311.752 44.6457 313.695 43.855C315.66 43.0644 317.874 42.6691 320.336 42.6691C321.579 42.6691 323.002 42.7255 324.606 42.8385C326.21 42.9514 327.701 43.166 329.079 43.4823V48.1923C327.859 47.8986 326.492 47.7179 324.979 47.6501C323.488 47.5598 322.087 47.5146 320.777 47.5146C318.721 47.5146 317.129 48.0455 315.999 49.1072C314.87 50.1463 314.305 51.5808 314.305 53.4106C314.305 54.7886 314.7 55.9632 315.491 56.9346C316.282 57.8834 317.411 58.3578 318.879 58.3578C320.528 58.3578 322.268 57.7817 324.098 56.6296C325.927 55.4776 327.475 53.7833 328.74 51.5469L329.824 56.9007C329.011 57.8495 328.006 58.866 326.808 59.9504C325.611 61.0347 324.222 61.9609 322.641 62.7289C321.082 63.497 319.309 63.881 317.321 63.881C315.084 63.881 313.221 63.384 311.73 62.3901C310.261 61.3961 309.166 60.1424 308.443 58.6288C307.72 57.0927 307.359 55.5227 307.359 53.9189ZM335.619 59.8826C335.46 60.5151 335.122 61.1928 334.602 61.9157C334.105 62.616 333.574 63.1468 333.009 63.5083C331.586 63.2146 330.434 62.6837 329.553 61.9157C328.672 61.1476 328.017 60.2327 327.588 59.171C327.159 58.0867 326.899 56.9459 326.808 55.7486V40.4666C326.808 38.3431 326.323 36.8183 325.351 35.8921C324.403 34.9433 323.047 34.4689 321.285 34.4689C319.591 34.4689 317.84 34.7287 316.033 35.2483C314.226 35.7678 312.419 36.3778 310.611 37.0781C310.069 36.5133 309.606 35.7453 309.222 34.7739C308.861 33.7799 308.657 32.8312 308.612 31.9276C309.877 31.3854 311.3 30.8771 312.882 30.4027C314.486 29.9284 316.135 29.5556 317.829 29.2845C319.523 28.9909 321.138 28.844 322.674 28.844C324.911 28.844 326.854 29.2507 328.503 30.0639C330.152 30.8771 331.428 32.1196 332.332 33.7912C333.258 35.4629 333.721 37.5976 333.721 40.1955V54.0883C333.721 55.3533 333.845 56.4715 334.094 57.4429C334.342 58.3917 334.85 59.2049 335.619 59.8826ZM368.476 29.454C368.476 30.4027 368.34 31.5096 368.069 32.7747C367.798 34.0171 367.358 35.1127 366.748 36.0615C366.318 35.9486 365.867 35.8808 365.392 35.8582C364.918 35.813 364.455 35.7791 364.003 35.7566C362.715 35.7566 361.586 36.0276 360.614 36.5698C359.666 37.0894 358.852 37.7784 358.175 38.6368C357.52 39.4726 356.955 40.3988 356.48 41.4153C356.006 42.4319 355.622 43.4258 355.328 44.3972L354.312 43.1096C354.357 41.5057 354.572 39.8905 354.956 38.264C355.34 36.615 355.927 35.1014 356.718 33.7235C357.531 32.3229 358.604 31.2047 359.937 30.3689C361.292 29.5104 362.93 29.0812 364.85 29.0812C365.46 29.0812 366.047 29.1151 366.612 29.1829C367.199 29.2281 367.821 29.3184 368.476 29.454ZM347.23 32.7747C347.388 32.1648 347.716 31.4871 348.213 30.7416C348.71 29.9735 349.229 29.4088 349.771 29.0473C352.03 29.5443 353.713 30.6851 354.82 32.4697C355.927 34.2317 356.56 36.4568 356.718 39.145V63C356.243 63.0904 355.701 63.1581 355.091 63.2033C354.481 63.2485 353.86 63.2711 353.228 63.2711C352.595 63.2711 351.974 63.2485 351.364 63.2033C350.754 63.1581 350.212 63.0904 349.737 63V39.755C349.737 37.9478 349.466 36.4681 348.924 35.316C348.382 34.164 347.817 33.3168 347.23 32.7747ZM403.809 53.4783C403.809 54.7886 403.933 56.0197 404.182 57.1718C404.453 58.3239 404.961 59.2275 405.707 59.8826C405.526 60.5151 405.176 61.1928 404.656 61.9157C404.159 62.616 403.628 63.1468 403.064 63.5083C400.85 63.0565 399.28 61.9947 398.354 60.3231C397.428 58.6514 396.964 56.7313 396.964 54.5627V13.5958L397.371 13.1553H400.048C401.494 13.1553 402.476 13.5168 402.996 14.2397C403.538 14.9399 403.809 16.0694 403.809 17.6281V53.4783ZM376.261 46.6675C376.261 42.6465 376.893 39.3258 378.158 36.7053C379.446 34.0849 381.072 32.1422 383.038 30.8771C385.026 29.6121 387.093 28.9796 389.239 28.9796C391.407 28.9796 393.395 29.4201 395.202 30.3011C397.01 31.1821 398.704 32.1986 400.285 33.3507L399.506 38.9078C398.196 37.8913 396.739 36.9199 395.135 35.9937C393.553 35.045 391.916 34.5706 390.221 34.5706C388.979 34.5706 387.838 35.0111 386.799 35.8921C385.76 36.7505 384.935 38.0833 384.325 39.8905C383.715 41.6751 383.411 43.9567 383.411 46.7353C383.411 49.4009 383.693 51.5695 384.258 53.2412C384.822 54.9128 385.568 56.1327 386.494 56.9007C387.443 57.6688 388.459 58.0528 389.544 58.0528C390.673 58.0528 391.859 57.7478 393.102 57.1379C394.344 56.5054 395.496 55.5453 396.558 54.2577C397.62 52.9701 398.444 51.321 399.031 49.3105L400.455 54.4949C400.025 56.0084 399.223 57.4881 398.049 58.9338C396.874 60.3796 395.428 61.5655 393.712 62.4917C391.995 63.4179 390.063 63.881 387.917 63.881C385.365 63.881 383.218 63.1581 381.479 61.7124C379.74 60.244 378.429 58.2222 377.548 55.647C376.69 53.0491 376.261 50.056 376.261 46.6675Z" fill="#B6BBC8"/>
<path d="M39.8271 66.6495L40.6399 66.6495C53.6579 66.6495 64.2111 56.0963 64.2111 43.0784C64.2111 30.0604 53.6579 19.5072 40.6399 19.5072L39.8271 19.5072C26.8091 19.5072 16.256 30.0604 16.256 43.0783C16.256 56.0963 26.8091 66.6495 39.8271 66.6495Z" fill="#F7C546"/>
<path d="M54.83 6.77335H26.4498C14.1224 6.77335 6.77332 14.1224 6.77332 26.4498V54.7962C6.77332 67.1575 14.1224 74.5065 26.4498 74.5065H54.7961C67.1236 74.5065 74.4726 67.1575 74.4726 54.83V26.4498C74.5065 14.1224 67.1574 6.77335 54.83 6.77335ZM53.814 45.6183C50.3257 49.0727 45.3474 50.1564 40.9447 48.7679L37.3548 52.3239C37.05 52.6287 36.5082 52.6287 36.1695 52.3239L32.8845 49.0388C32.4103 48.5647 31.5975 48.5647 31.0895 49.0388C30.5815 49.513 30.6154 50.3258 31.0895 50.8338L34.3746 54.1188C34.7132 54.4575 34.7132 54.9994 34.3746 55.3042L32.9861 56.6927C32.4103 57.3023 31.2927 57.6748 30.4799 57.5732L26.7885 57.0652C25.5693 56.8959 24.4517 55.7444 24.2485 54.5252L23.7405 50.8338C23.605 50.021 24.0114 48.9034 24.5533 48.3276L32.5119 40.369C31.1573 35.9663 32.2071 30.988 35.6954 27.4997C40.6738 22.5213 48.8017 22.5213 53.814 27.4997C58.8263 32.4781 58.8263 40.6061 53.814 45.6183Z" fill="#828896"/>
<path d="M37.4971 32.9455L41.832 39.8813" stroke="#8C89AC" stroke-width="1.73397" stroke-linecap="round"/>
<path d="M49.3941 43.7828C50.6877 41.5422 51.3687 39.0006 51.3687 36.4134C51.3687 33.8262 50.6877 31.2846 49.3941 29.044" stroke="#8C89AC" stroke-width="1.73397" stroke-linecap="round"/>
<path d="M45.64 41.6153C46.5531 40.0337 47.0339 38.2396 47.0339 36.4134C47.0339 34.5871 46.5531 32.7931 45.64 31.2115" stroke="#8C89AC" stroke-width="1.73397" stroke-linecap="round"/>
<path d="M41.7697 39.8813C42.3784 38.8269 42.6989 37.6309 42.6989 36.4134C42.6989 35.1959 42.3784 33.9998 41.7697 32.9455" stroke="#8C89AC" stroke-width="1.73397" stroke-linecap="round"/>
<path d="M37.5593 39.8813C36.9505 38.8269 36.6301 37.6309 36.6301 36.4134C36.6301 35.1959 36.9505 33.9998 37.5593 32.9455" stroke="#8C89AC" stroke-width="1.73397" stroke-linecap="round"/>
</svg>
