<svg width="629" height="128" viewBox="0 0 629 128" fill="none" xmlns="http://www.w3.org/2000/svg">
<path d="M130.623 26.8157C131.422 26.642 132.343 26.5378 133.385 26.5031C134.427 26.4336 135.33 26.3988 136.095 26.3988C136.998 26.3988 137.953 26.4336 138.961 26.5031C139.968 26.5378 140.889 26.642 141.723 26.8157V98C140.889 98.139 139.968 98.2432 138.961 98.3127C137.953 98.3822 136.998 98.4169 136.095 98.4169C135.33 98.4169 134.427 98.3822 133.385 98.3127C132.343 98.2432 131.422 98.139 130.623 98V26.8157ZM181.64 95.1339C180.876 96.2456 179.781 97.1141 178.357 97.7394C176.933 98.33 175.526 98.6253 174.136 98.6253C171.947 98.6253 170.367 98.0695 169.394 96.9578C168.456 95.8461 167.587 94.1611 166.788 91.903L161.16 76.6864C159.701 72.6912 158.051 69.9119 156.21 68.3486C154.368 66.7852 151.902 66.0036 148.81 66.0036C147.698 66.0036 146.083 66.0383 143.963 66.1078C141.844 66.1773 139.186 66.3162 135.99 66.5247V59.2291H153.917C157.46 59.2291 160.309 59.7502 162.463 60.7924C164.617 61.7999 166.371 63.2938 167.726 65.274C169.081 67.2195 170.28 69.6166 171.322 72.4654L177.002 87.5256C177.558 88.9847 178.062 90.1833 178.513 91.1213C179 92.0593 179.486 92.841 179.972 93.4663C180.494 94.0569 181.049 94.6128 181.64 95.1339ZM164.912 30.9846C165.746 29.4908 166.597 28.3791 167.466 27.6495C168.334 26.8852 169.706 26.5031 171.582 26.5031C172.52 26.5031 173.528 26.5204 174.605 26.5552C175.717 26.5899 176.811 26.6594 177.888 26.7636L178.618 27.7016L162.828 54.4348C161.299 57.1446 159.371 59.2812 157.043 60.8445C154.75 62.4079 151.85 63.1895 148.341 63.1895H135.99V56.7798C137.762 56.7103 139.708 56.6582 141.827 56.6235C143.946 56.554 145.857 56.5193 147.559 56.5193C148.601 56.5193 149.366 56.2934 149.852 55.8418C150.373 55.3902 150.929 54.6433 151.52 53.601L164.912 30.9846ZM200.575 27.4932L201.253 26.8157H211.414V35.9352C211.414 37.3944 211.432 38.5929 211.466 39.5309C211.501 40.4342 211.519 41.598 211.519 43.0224V83.6172C211.519 84.5552 211.501 85.4238 211.466 86.2228C211.432 86.9871 211.414 87.873 211.414 88.8805V98.1042H206.933C204.987 98.1042 203.441 97.4963 202.295 96.2803C201.148 95.0644 200.575 93.3794 200.575 91.2255V27.4932ZM237.574 57.4573C237.748 58.1521 237.87 58.9511 237.939 59.8544C238.043 60.7229 238.095 61.4525 238.095 62.0431C238.095 62.6684 238.043 63.4154 237.939 64.2839C237.87 65.1177 237.748 65.9167 237.574 66.681H217.98C217.181 66.681 216.174 66.681 214.958 66.681C213.742 66.6463 212.474 66.6289 211.154 66.6289C209.868 66.5941 208.705 66.5594 207.662 66.5247V57.5615C208.705 57.5615 209.868 57.5615 211.154 57.5615C212.474 57.5268 213.742 57.5094 214.958 57.5094C216.174 57.4746 217.181 57.4573 217.98 57.4573H237.574ZM243.202 26.8157C243.376 27.6495 243.48 28.4486 243.515 29.2129C243.55 29.9424 243.567 30.6199 243.567 31.2452C243.567 31.8705 243.498 32.6522 243.359 33.5902C243.254 34.4935 243.029 35.362 242.681 36.1958H217.98C217.181 36.1958 216.174 36.1958 214.958 36.1958C213.742 36.1958 212.474 36.1958 211.154 36.1958C209.868 36.161 208.705 36.1263 207.662 36.0916V26.8157H243.202ZM245.235 88.672C245.235 92.0419 244.714 94.4564 243.671 95.9155C242.664 97.3747 240.736 98.1042 237.887 98.1042H207.662V89.141C209.33 89.0368 210.98 88.9326 212.613 88.8284C214.246 88.7242 216.139 88.672 218.293 88.672H245.235ZM278.785 68.4528H289.884V98C289.016 98.139 288.078 98.2432 287.07 98.3127C286.098 98.3822 285.177 98.4169 284.309 98.4169C283.509 98.4169 282.589 98.3822 281.547 98.3127C280.504 98.2432 279.584 98.139 278.785 98V68.4528ZM299.16 26.8157C299.925 26.6073 300.706 26.4857 301.505 26.4509C302.304 26.3815 303.086 26.3467 303.85 26.3467C304.788 26.3467 305.726 26.4162 306.664 26.5552C307.602 26.6594 308.454 26.8331 309.218 27.0763L309.739 27.858L288.999 77.3639H279.827L258.982 28.0664C260.198 27.4063 261.379 26.9026 262.526 26.5552C263.707 26.2078 264.836 26.0341 265.913 26.0341C267.477 26.0341 268.692 26.4336 269.561 27.2326C270.464 27.9969 271.246 29.2129 271.906 30.8804L280.14 50.8912C280.904 52.7325 281.668 54.8343 282.433 57.1967C283.232 59.5591 283.926 61.7999 284.517 63.9191H285.038C285.455 62.5295 285.941 61.0009 286.497 59.3333C287.053 57.631 287.626 56.0155 288.217 54.4869C288.807 52.9236 289.294 51.6382 289.676 50.6307L299.16 26.8157ZM314.05 92.3198C314.05 91.6945 314.137 90.826 314.311 89.7143C314.485 88.6026 314.728 87.734 315.04 87.1087C315.735 86.7266 316.691 86.4139 317.907 86.1707C319.123 85.8928 320.286 85.7538 321.398 85.7538C322.44 85.7538 323.587 85.8928 324.837 86.1707C326.123 86.4139 327.096 86.7266 327.756 87.1087C328.103 87.734 328.364 88.6026 328.537 89.7143C328.711 90.826 328.798 91.6945 328.798 92.3198C328.798 92.9452 328.711 93.8137 328.537 94.9254C328.364 96.0024 328.103 96.8535 327.756 97.4789C327.165 97.8958 326.21 98.2258 324.89 98.469C323.604 98.7122 322.44 98.8338 321.398 98.8338C320.286 98.8338 319.123 98.7122 317.907 98.469C316.691 98.2258 315.735 97.8958 315.04 97.4789C314.728 96.8535 314.485 96.0024 314.311 94.9254C314.137 93.8137 314.05 92.9452 314.05 92.3198Z" fill="#F7C546"/>
<path d="M361.596 95.3944H351.018V22.0215L351.695 21.344H355.708C357.966 21.344 359.512 21.8999 360.346 23.0116C361.179 24.0886 361.596 25.8256 361.596 28.2227V95.3944ZM393.384 71.5795C393.384 77.6592 392.325 82.714 390.206 86.7439C388.086 90.7739 385.255 93.7963 381.711 95.8113C378.168 97.7916 374.259 98.7817 369.986 98.7817C366.651 98.7817 363.386 98.4864 360.189 97.8958C356.993 97.3052 353.936 96.4714 351.018 95.3944L356.333 87.1087C358.487 88.3594 360.641 89.2974 362.795 89.9227C364.984 90.5133 367.415 90.8086 370.091 90.8086C372.453 90.8086 374.555 90.1138 376.396 88.7242C378.272 87.2998 379.731 85.1632 380.773 82.3144C381.85 79.4657 382.389 75.9395 382.389 71.7358C382.389 65.6909 381.468 61.3309 379.627 58.6558C377.82 55.9808 375.58 54.6433 372.905 54.6433C370.334 54.6085 367.815 55.4249 365.348 57.0925C362.882 58.7601 360.919 60.914 359.46 63.5543L357.896 54.7475C358.973 53.3926 360.346 52.0203 362.013 50.6307C363.681 49.241 365.626 48.0772 367.85 47.1392C370.108 46.1665 372.609 45.6801 375.354 45.6801C379.349 45.6801 382.667 46.7918 385.307 49.0152C387.982 51.2039 389.997 54.2611 391.352 58.1868C392.707 62.0778 393.384 66.542 393.384 71.5795ZM455.277 72.2569C455.277 77.5723 454.425 82.2797 452.723 86.3791C451.021 90.4438 448.502 93.6226 445.167 95.9155C441.832 98.2084 437.68 99.3549 432.712 99.3549C427.779 99.3549 423.645 98.1911 420.31 95.8634C416.975 93.5358 414.456 90.3396 412.754 86.2749C411.086 82.1755 410.252 77.5028 410.252 72.2569C410.252 66.9763 411.103 62.3036 412.806 58.2389C414.508 54.1742 417.027 50.9954 420.362 48.7025C423.697 46.3749 427.814 45.2111 432.712 45.2111C437.715 45.2111 441.884 46.3749 445.219 48.7025C448.589 50.9954 451.108 54.1742 452.775 58.2389C454.443 62.3036 455.277 66.9763 455.277 72.2569ZM421.352 72.2569C421.352 75.4878 421.682 78.545 422.342 81.4286C423.002 84.3121 424.166 86.6571 425.834 88.4636C427.501 90.2354 429.829 91.1213 432.816 91.1213C435.804 91.1213 438.114 90.2354 439.747 88.4636C441.38 86.6571 442.527 84.3121 443.187 81.4286C443.847 78.545 444.177 75.4878 444.177 72.2569C444.177 69.026 443.847 65.9688 443.187 63.0853C442.527 60.2018 441.38 57.8568 439.747 56.0503C438.114 54.2437 435.804 53.3405 432.816 53.3405C429.829 53.3405 427.501 54.2437 425.834 56.0503C424.166 57.8568 423.002 60.2018 422.342 63.0853C421.682 65.9688 421.352 69.026 421.352 72.2569ZM472.164 84.0341C472.164 80.0389 473.032 76.7733 474.769 74.2372C476.541 71.6663 478.921 69.773 481.909 68.557C484.931 67.3411 488.336 66.7331 492.123 66.7331C494.033 66.7331 496.222 66.82 498.689 66.9937C501.155 67.1674 503.448 67.4974 505.567 67.9838V75.2273C503.691 74.7757 501.589 74.4977 499.262 74.3935C496.969 74.2545 494.815 74.1851 492.8 74.1851C489.639 74.1851 487.189 75.0015 485.452 76.6343C483.715 78.2324 482.847 80.4384 482.847 83.2525C482.847 85.3717 483.455 87.1782 484.671 88.672C485.887 90.1312 487.624 90.8607 489.882 90.8607C492.418 90.8607 495.093 89.9748 497.907 88.203C500.721 86.4313 503.101 83.8257 505.046 80.3863L506.714 88.6199C505.463 90.0791 503.917 91.6424 502.076 93.31C500.235 94.9775 498.098 96.4019 495.666 97.5831C493.269 98.7643 490.542 99.3549 487.485 99.3549C484.045 99.3549 481.179 98.5906 478.886 97.062C476.628 95.5334 474.943 93.6053 473.831 91.2776C472.72 88.9152 472.164 86.5007 472.164 84.0341ZM515.625 93.2057C515.382 94.1785 514.861 95.2207 514.062 96.3324C513.297 97.4094 512.481 98.2258 511.612 98.7817C509.424 98.33 507.652 97.5136 506.297 96.3324C504.942 95.1512 503.935 93.7442 503.274 92.1114C502.614 90.4438 502.215 88.6894 502.076 86.8481V63.3459C502.076 60.0802 501.329 57.7352 499.835 56.3108C498.376 54.8517 496.291 54.1221 493.582 54.1221C490.976 54.1221 488.284 54.5217 485.504 55.3207C482.725 56.1197 479.946 57.0577 477.167 58.1347C476.333 57.2662 475.621 56.085 475.03 54.5911C474.474 53.0625 474.161 51.6034 474.092 50.2138C476.038 49.38 478.226 48.5983 480.658 47.8688C483.125 47.1392 485.661 46.566 488.266 46.1491C490.872 45.6974 493.356 45.4716 495.718 45.4716C499.158 45.4716 502.145 46.097 504.681 47.3476C507.218 48.5983 509.18 50.5091 510.57 53.0799C511.994 55.6507 512.707 58.9338 512.707 62.929V84.2947C512.707 86.2402 512.898 87.9599 513.28 89.4537C513.662 90.9128 514.444 92.1635 515.625 93.2057ZM566.156 46.4096C566.156 47.8688 565.947 49.5711 565.531 51.5166C565.114 53.4273 564.436 55.1123 563.498 56.5714C562.838 56.3977 562.143 56.2934 561.414 56.2587C560.684 56.1892 559.972 56.1371 559.277 56.1024C557.297 56.1024 555.56 56.5193 554.066 57.353C552.607 58.1521 551.356 59.2117 550.314 60.5318C549.306 61.8173 548.438 63.2416 547.708 64.805C546.979 66.3683 546.388 67.8969 545.937 69.3908L544.373 67.4106C544.443 64.944 544.773 62.46 545.363 59.9586C545.954 57.4225 546.857 55.0949 548.073 52.9757C549.324 50.8217 550.974 49.1021 553.024 47.8166C555.108 46.4965 557.627 45.8364 560.58 45.8364C561.518 45.8364 562.421 45.8885 563.29 45.9927C564.193 46.0622 565.148 46.2012 566.156 46.4096ZM533.482 51.5166C533.725 50.5786 534.229 49.5363 534.993 48.3899C535.757 47.2087 536.557 46.3402 537.39 45.7843C540.864 46.5486 543.453 48.303 545.155 51.0476C546.857 53.7574 547.83 57.1793 548.073 61.3135V98C547.344 98.139 546.51 98.2432 545.572 98.3127C544.634 98.3822 543.678 98.4169 542.706 98.4169C541.733 98.4169 540.778 98.3822 539.84 98.3127C538.902 98.2432 538.068 98.139 537.338 98V62.2515C537.338 59.4722 536.921 57.1967 536.088 55.4249C535.254 53.6531 534.385 52.3503 533.482 51.5166ZM620.495 83.3567C620.495 85.3717 620.686 87.265 621.068 89.0368C621.485 90.8086 622.267 92.1983 623.413 93.2057C623.135 94.1785 622.597 95.2207 621.798 96.3324C621.034 97.4094 620.217 98.2258 619.349 98.7817C615.944 98.0869 613.53 96.454 612.105 93.8832C610.681 91.3124 609.969 88.3594 609.969 85.0242V22.0215L610.594 21.344H614.711C616.934 21.344 618.445 21.8999 619.244 23.0116C620.078 24.0886 620.495 25.8256 620.495 28.2227V83.3567ZM578.128 72.8823C578.128 66.6984 579.101 61.5914 581.047 57.5615C583.027 53.5315 585.528 50.5438 588.551 48.5983C591.608 46.6528 594.787 45.6801 598.087 45.6801C601.422 45.6801 604.48 46.3575 607.259 47.7124C610.038 49.0673 612.644 50.6307 615.076 52.4025L613.877 60.9487C611.862 59.3854 609.621 57.8915 607.155 56.4672C604.723 55.008 602.204 54.2785 599.598 54.2785C597.688 54.2785 595.933 54.9559 594.335 56.3108C592.737 57.631 591.469 59.6807 590.531 62.46C589.593 65.2045 589.124 68.7134 589.124 72.9865C589.124 77.0859 589.558 80.4211 590.427 82.9919C591.295 85.5627 592.442 87.4387 593.866 88.6199C595.325 89.8011 596.889 90.3917 598.556 90.3917C600.293 90.3917 602.117 89.9227 604.028 88.9847C605.939 88.012 607.71 86.5355 609.343 84.5552C610.976 82.575 612.244 80.0389 613.147 76.947L615.336 84.92C614.676 87.2477 613.443 89.5232 611.636 91.7466C609.83 93.97 607.606 95.7939 604.966 97.2183C602.326 98.6427 599.355 99.3549 596.055 99.3549C592.129 99.3549 588.829 98.2432 586.154 96.0198C583.479 93.7616 581.464 90.6523 580.109 86.6918C578.789 82.6966 578.128 78.0934 578.128 72.8823Z" fill="#5D616C"/>
<path d="M61.25 102.5L62.5 102.5C82.5203 102.5 98.75 86.2703 98.75 66.25C98.75 46.2297 82.5203 30 62.5 30L61.25 30C41.2297 30 25 46.2297 25 66.25C25 86.2703 41.2297 102.5 61.25 102.5Z" fill="#F7C546"/>
<path d="M84.3229 10.4167H40.6771C21.7188 10.4167 10.4167 21.7188 10.4167 40.6771V84.2709C10.4167 103.281 21.7188 114.583 40.6771 114.583H84.2709C103.229 114.583 114.531 103.281 114.531 84.3229V40.6771C114.583 21.7188 103.281 10.4167 84.3229 10.4167ZM82.7604 70.1563C77.3959 75.4688 69.7396 77.1354 62.9688 75L57.4479 80.4688C56.9792 80.9375 56.1459 80.9375 55.625 80.4688L50.5729 75.4167C49.8438 74.6875 48.5938 74.6875 47.8125 75.4167C47.0313 76.1458 47.0834 77.3959 47.8125 78.1771L52.8646 83.2292C53.3854 83.75 53.3854 84.5833 52.8646 85.0521L50.7292 87.1875C49.8438 88.125 48.125 88.6979 46.875 88.5417L41.1979 87.7604C39.3229 87.5 37.6042 85.7292 37.2917 83.8542L36.5104 78.1771C36.3021 76.9271 36.9271 75.2084 37.7604 74.3229L50 62.0834C47.9167 55.3125 49.5313 47.6563 54.8959 42.2917C62.5521 34.6354 75.0521 34.6354 82.7604 42.2917C90.4688 49.9479 90.4688 62.4479 82.7604 70.1563Z" fill="#5D616C"/>
<path d="M57.6667 50.6667L64.3334 61.3334" stroke="#8C89AC" stroke-width="2.66667" stroke-linecap="round"/>
<path d="M75.9631 67.3334C77.9525 63.8876 78.9999 59.9788 78.9999 56C78.9999 52.0212 77.9525 48.1125 75.9631 44.6667" stroke="#8C89AC" stroke-width="2.66667" stroke-linecap="round"/>
<path d="M70.1897 64C71.594 61.5677 72.3333 58.8085 72.3333 56C72.3333 53.1914 71.594 50.4323 70.1897 48" stroke="#8C89AC" stroke-width="2.66667" stroke-linecap="round"/>
<path d="M64.2375 61.3334C65.1737 59.7118 65.6666 57.8725 65.6666 56.0001C65.6666 54.1277 65.1737 52.2883 64.2375 50.6667" stroke="#8C89AC" stroke-width="2.66667" stroke-linecap="round"/>
<path d="M57.7623 61.3334C56.8261 59.7118 56.3333 57.8725 56.3333 56.0001C56.3333 54.1277 56.8261 52.2883 57.7623 50.6667" stroke="#8C89AC" stroke-width="2.66667" stroke-linecap="round"/>
</svg>
